<?xml version="1.0" encoding="utf-8"?>
<!DOCTYPE svg PUBLIC "-//W3C//DTD SVG 1.1//EN" "http://www.w3.org/Graphics/SVG/1.1/DTD/svg11.dtd">
<svg version="1.1" id="Layer_1" xmlns="http://www.w3.org/2000/svg" xmlns:xlink="http://www.w3.org/1999/xlink" x="0px" y="0px"
width="1160px" height="1160px" viewBox="0 0 1160 1160" enable-background="new 0 0 1160 1160" xml:space="preserve">
<rect x="0" y="0" width="1160" height="1160" fill="rgb(24,24,27)" /><g transform="translate(80,80)"><g transform="translate(320,0) scale(0.08,0.08)"><g transform="" style="fill: rgb(45, 212, 191);">
<path d="M250,38.5c116.813,0,211.5,94.693,211.5,211.5c0,116.813-94.687,211.5-211.5,211.5c-116.807,0-211.5-94.687-211.5-211.5
	C38.5,133.193,133.193,38.5,250,38.5z"/>
</g></g><g transform="translate(480,0) scale(0.08,0.08)"><g transform="" style="fill: rgb(45, 212, 191);">
<path d="M250,38.5c116.813,0,211.5,94.693,211.5,211.5c0,116.813-94.687,211.5-211.5,211.5c-116.807,0-211.5-94.687-211.5-211.5
	C38.5,133.193,133.193,38.5,250,38.5z"/>
</g></g><g transform="translate(520,0) scale(0.08,0.08)"><g transform="" style="fill: rgb(45, 212, 191);">
<path d="M250,38.5c116.813,0,211.5,94.693,211.5,211.5c0,116.813-94.687,211.5-211.5,211.5c-116.807,0-211.5-94.687-211.5-211.5
	C38.5,133.193,133.193,38.5,250,38.5z"/>
</g></g><g transform="translate(360,40) scale(0.08,0.08)"><g transform="" style="fill: rgb(45, 212, 191);">
<path d="M250,38.5c116.813,0,211.5,94.693,211.5,211.5c0,116.813-94.687,211.5-211.5,211.5c-116.807,0-211.5-94.687-211.5-211.5
	C38.5,133.193,133.193,38.5,250,38.5z"/>
</g></g><g transform="translate(400,40) scale(0.08,0.08)"><g transform="" style="fill: rgb(45, 212, 191);">
<path d="M250,38.5c116.813,0,211.5,94.693,211.5,211.5c0,116.813-94.687,211.5-211.5,211.5c-116.807,0-211.5-94.687-211.5-211.5
	C38.5,133.193,133.193,38.5,250,38.5z"/>
</g></g><g transform="translate(560,40) scale(0.08,0.08)"><g transform="" style="fill: rgb(45, 212, 191);">
<path d="M38.5,211.5c0,42.907,0,123.188,0,171.55c0,23.857,0,39.95,0,39.95v17.5V470v30h423v-30v-29.5V423c0,0,0-16.216,0-39.95
	c0-51.332,0-137.84,0-171.55C461.5,94.699,366.8,0,250,0C133.191,0,38.5,94.699,38.5,211.5z"/>
</g></g><g transform="translate(640,40) scale(0.08,0.08)"><g transform="" style="fill: rgb(45, 212, 191);">
<path d="M250,38.5c116.813,0,211.5,94.693,211.5,211.5c0,116.813-94.687,211.5-211.5,211.5c-116.807,0-211.5-94.687-211.5-211.5
	C38.5,133.193,133.193,38.5,250,38.5z"/>
</g></g><g transform="translate(320,80) scale(0.08,0.08)"><g transform="" style="fill: rgb(45, 212, 191);">
<path d="M250,38.5c116.813,0,211.5,94.693,211.5,211.5c0,116.813-94.687,211.5-211.5,211.5c-116.807,0-211.5-94.687-211.5-211.5
	C38.5,133.193,133.193,38.5,250,38.5z"/>
</g></g><g transform="translate(440,80) scale(0.08,0.08)"><g transform="" style="fill: rgb(45, 212, 191);">
<path d="M38.5,211.5c0,42.907,0,123.188,0,171.55c0,23.857,0,39.95,0,39.95v17.5V470v30h423v-30v-29.5V423c0,0,0-16.216,0-39.95
	c0-51.332,0-137.84,0-171.55C461.5,94.699,366.8,0,250,0C133.191,0,38.5,94.699,38.5,211.5z"/>
</g></g><g transform="translate(520,80) scale(0.08,0.08)"><g transform="" style="fill: rgb(45, 212, 191);">
<path d="M38.5,211.5c0,42.907,0,123.188,0,171.55c0,23.857,0,39.95,0,39.95v17.5V470v30h423v-30v-29.5V423c0,0,0-16.216,0-39.95
	c0-51.332,0-137.84,0-171.55C461.5,94.699,366.8,0,250,0C133.191,0,38.5,94.699,38.5,211.5z"/>
</g></g><g transform="translate(560,80) scale(0.08,0.08)"><g transform="" style="fill: rgb(45, 212, 191);">
<polygon points="38.5,250 38.5,500 461.5,500 461.5,250 461.5,0 38.5,0 "/>
</g></g><g transform="translate(360,120) scale(0.08,0.08)"><g transform="" style="fill: rgb(45, 212, 191);">
<path d="M38.5,211.5c0,42.907,0,123.188,0,171.55c0,23.857,0,39.95,0,39.95v17.5V470v30h423v-30v-29.5V423c0,0,0-16.216,0-39.95
	c0-51.332,0-137.84,0-171.55C461.5,94.699,366.8,0,250,0C133.191,0,38.5,94.699,38.5,211.5z"/>
</g></g><g transform="translate(440,120) scale(0.08,0.08)"><g transform="" style="fill: rgb(45, 212, 191);">
<polygon points="38.5,250 38.5,500 461.5,500 461.5,250 461.5,0 38.5,0 "/>
</g></g><g transform="translate(520,120) scale(0.08,0.08)"><g transform="" style="fill: rgb(45, 212, 191);">
<polygon points="38.5,250 38.5,500 461.5,500 461.5,250 461.5,0 38.5,0 "/>
</g></g><g transform="translate(560,120) scale(0.08,0.08)"><g transform="" style="fill: rgb(45, 212, 191);">
<path d="M461.5,288.5c0-42.907,0-123.188,0-171.55c0-23.857,0-39.95,0-39.95V59.5V30V0h-423v30v29.5V77c0,0,0,16.216,0,39.95
	c0,51.332,0,137.84,0,171.55C38.5,405.301,133.2,500,250,500C366.809,500,461.5,405.301,461.5,288.5z"/>
</g></g><g transform="translate(600,120) scale(0.08,0.08)"><g transform="" style="fill: rgb(45, 212, 191);">
<path d="M250,38.5c116.813,0,211.5,94.693,211.5,211.5c0,116.813-94.687,211.5-211.5,211.5c-116.807,0-211.5-94.687-211.5-211.5
	C38.5,133.193,133.193,38.5,250,38.5z"/>
</g></g><g transform="translate(360,160) scale(0.08,0.08)"><g transform="" style="fill: rgb(45, 212, 191);">
<polygon points="38.5,250 38.5,500 461.5,500 461.5,250 461.5,0 38.5,0 "/>
</g></g><g transform="translate(440,160) scale(0.08,0.08)"><g transform="" style="fill: rgb(45, 212, 191);">
<path d="M461.5,288.5c0-42.907,0-123.188,0-171.55c0-23.857,0-39.95,0-39.95V59.5V30V0h-423v30v29.5V77c0,0,0,16.216,0,39.95
	c0,51.332,0,137.84,0,171.55C38.5,405.301,133.2,500,250,500C366.809,500,461.5,405.301,461.5,288.5z"/>
</g></g><g transform="translate(520,160) scale(0.08,0.08)"><g transform="" style="fill: rgb(45, 212, 191);">
<polygon points="38.5,250 38.5,500 461.5,500 461.5,250 461.5,0 38.5,0 "/>
</g></g><g transform="translate(320,200) scale(0.08,0.08)"><g transform="" style="fill: rgb(45, 212, 191);">
<path d="M38.5,211.5c0,42.907,0,123.188,0,171.55c0,23.857,0,39.95,0,39.95v17.5V470v30h423v-30v-29.5V423c0,0,0-16.216,0-39.95
	c0-51.332,0-137.84,0-171.55C461.5,94.699,366.8,0,250,0C133.191,0,38.5,94.699,38.5,211.5z"/>
</g></g><g transform="translate(360,200) scale(0.08,0.08)"><g transform="" style="fill: rgb(45, 212, 191);">
<path d="M461.5,288.5c0-42.907,0-123.188,0-171.55c0-23.857,0-39.95,0-39.95V59.5V30V0h-423v30v29.5V77c0,0,0,16.216,0,39.95
	c0,51.332,0,137.84,0,171.55C38.5,405.301,133.2,500,250,500C366.809,500,461.5,405.301,461.5,288.5z"/>
</g></g><g transform="translate(520,200) scale(0.08,0.08)"><g transform="" style="fill: rgb(45, 212, 191);">
<path d="M461.5,288.5c0-42.907,0-123.188,0-171.55c0-23.857,0-39.95,0-39.95V59.5V30V0h-423v30v29.5V77c0,0,0,16.216,0,39.95
	c0,51.332,0,137.84,0,171.55C38.5,405.301,133.2,500,250,500C366.809,500,461.5,405.301,461.5,288.5z"/>
</g></g><g transform="translate(640,200) scale(0.08,0.08)"><g transform="" style="fill: rgb(45, 212, 191);">
<path d="M38.5,211.5c0,42.907,0,123.188,0,171.55c0,23.857,0,39.95,0,39.95v17.5V470v30h423v-30v-29.5V423c0,0,0-16.216,0-39.95
	c0-51.332,0-137.84,0-171.55C461.5,94.699,366.8,0,250,0C133.191,0,38.5,94.699,38.5,211.5z"/>
</g></g><g transform="translate(320,240) scale(0.08,0.08)"><g transform="" style="fill: rgb(45, 212, 191);">
<path d="M461.5,288.5c0-42.907,0-123.188,0-171.55c0-23.857,0-39.95,0-39.95V59.5V30V0h-423v30v29.5V77c0,0,0,16.216,0,39.95
	c0,51.332,0,137.84,0,171.55C38.5,405.301,133.2,500,250,500C366.809,500,461.5,405.301,461.5,288.5z"/>
</g></g><g transform="translate(400,240) scale(0.08,0.08)"><g transform="" style="fill: rgb(45, 212, 191);">
<path d="M250,38.5c116.813,0,211.5,94.693,211.5,211.5c0,116.813-94.687,211.5-211.5,211.5c-116.807,0-211.5-94.687-211.5-211.5
	C38.5,133.193,133.193,38.5,250,38.5z"/>
</g></g><g transform="translate(480,240) scale(0.08,0.08)"><g transform="" style="fill: rgb(45, 212, 191);">
<path d="M250,38.5c116.813,0,211.5,94.693,211.5,211.5c0,116.813-94.687,211.5-211.5,211.5c-116.807,0-211.5-94.687-211.5-211.5
	C38.5,133.193,133.193,38.5,250,38.5z"/>
</g></g><g transform="translate(560,240) scale(0.08,0.08)"><g transform="" style="fill: rgb(45, 212, 191);">
<path d="M250,38.5c116.813,0,211.5,94.693,211.5,211.5c0,116.813-94.687,211.5-211.5,211.5c-116.807,0-211.5-94.687-211.5-211.5
	C38.5,133.193,133.193,38.5,250,38.5z"/>
</g></g><g transform="translate(640,240) scale(0.08,0.08)"><g transform="" style="fill: rgb(45, 212, 191);">
<polygon points="38.5,250 38.5,500 461.5,500 461.5,250 461.5,0 38.5,0 "/>
</g></g><g transform="translate(440,280) scale(0.08,0.08)"><g transform="" style="fill: rgb(45, 212, 191);">
<path d="M250,38.5c116.813,0,211.5,94.693,211.5,211.5c0,116.813-94.687,211.5-211.5,211.5c-116.807,0-211.5-94.687-211.5-211.5
	C38.5,133.193,133.193,38.5,250,38.5z"/>
</g></g><g transform="translate(600,280) scale(0.08,0.08)"><g transform="" style="fill: rgb(45, 212, 191);">
<path d="M250,38.5c116.813,0,211.5,94.693,211.5,211.5c0,116.813-94.687,211.5-211.5,211.5c-116.807,0-211.5-94.687-211.5-211.5
	C38.5,133.193,133.193,38.5,250,38.5z"/>
</g></g><g transform="translate(640,280) scale(0.08,0.08)"><g transform="" style="fill: rgb(45, 212, 191);">
<polygon points="38.5,250 38.5,500 461.5,500 461.5,250 461.5,0 38.5,0 "/>
</g></g><g transform="translate(0,320) scale(0.08,0.08)"><g transform="" style="fill: rgb(45, 212, 191);">
<path d="M38.5,211.5c0,42.907,0,123.188,0,171.55c0,23.857,0,39.95,0,39.95v17.5V470v30h423v-30v-29.5V423c0,0,0-16.216,0-39.95
	c0-51.332,0-137.84,0-171.55C461.5,94.699,366.8,0,250,0C133.191,0,38.5,94.699,38.5,211.5z"/>
</g></g><g transform="translate(80,320) scale(0.08,0.08)"><g transform="" style="fill: rgb(45, 212, 191);">
<path d="M38.5,211.5c0,42.907,0,123.188,0,171.55c0,23.857,0,39.95,0,39.95v17.5V470v30h423v-30v-29.5V423c0,0,0-16.216,0-39.95
	c0-51.332,0-137.84,0-171.55C461.5,94.699,366.8,0,250,0C133.191,0,38.5,94.699,38.5,211.5z"/>
</g></g><g transform="translate(240,320) scale(0.08,0.08)"><g transform="" style="fill: rgb(45, 212, 191);">
<path d="M250,38.5c116.813,0,211.5,94.693,211.5,211.5c0,116.813-94.687,211.5-211.5,211.5c-116.807,0-211.5-94.687-211.5-211.5
	C38.5,133.193,133.193,38.5,250,38.5z"/>
</g></g><g transform="translate(280,320) scale(0.08,0.08)"><g transform="" style="fill: rgb(45, 212, 191);">
<path d="M250,38.5c116.813,0,211.5,94.693,211.5,211.5c0,116.813-94.687,211.5-211.5,211.5c-116.807,0-211.5-94.687-211.5-211.5
	C38.5,133.193,133.193,38.5,250,38.5z"/>
</g></g><g transform="translate(400,320) scale(0.08,0.08)"><g transform="" style="fill: rgb(45, 212, 191);">
<path d="M250,38.5c116.813,0,211.5,94.693,211.5,211.5c0,116.813-94.687,211.5-211.5,211.5c-116.807,0-211.5-94.687-211.5-211.5
	C38.5,133.193,133.193,38.5,250,38.5z"/>
</g></g><g transform="translate(480,320) scale(0.08,0.08)"><g transform="" style="fill: rgb(45, 212, 191);">
<path d="M250,38.5c116.813,0,211.5,94.693,211.5,211.5c0,116.813-94.687,211.5-211.5,211.5c-116.807,0-211.5-94.687-211.5-211.5
	C38.5,133.193,133.193,38.5,250,38.5z"/>
</g></g><g transform="translate(640,320) scale(0.08,0.08)"><g transform="" style="fill: rgb(45, 212, 191);">
<path d="M461.5,288.5c0-42.907,0-123.188,0-171.55c0-23.857,0-39.95,0-39.95V59.5V30V0h-423v30v29.5V77c0,0,0,16.216,0,39.95
	c0,51.332,0,137.84,0,171.55C38.5,405.301,133.2,500,250,500C366.809,500,461.5,405.301,461.5,288.5z"/>
</g></g><g transform="translate(760,320) scale(0.08,0.08)"><g transform="" style="fill: rgb(45, 212, 191);">
<path d="M38.5,211.5c0,42.907,0,123.188,0,171.55c0,23.857,0,39.95,0,39.95v17.5V470v30h423v-30v-29.5V423c0,0,0-16.216,0-39.95
	c0-51.332,0-137.84,0-171.55C461.5,94.699,366.8,0,250,0C133.191,0,38.5,94.699,38.5,211.5z"/>
</g></g><g transform="translate(880,320) scale(0.08,0.08)"><g transform="" style="fill: rgb(45, 212, 191);">
<path d="M250,38.5c116.813,0,211.5,94.693,211.5,211.5c0,116.813-94.687,211.5-211.5,211.5c-116.807,0-211.5-94.687-211.5-211.5
	C38.5,133.193,133.193,38.5,250,38.5z"/>
</g></g><g transform="translate(960,320) scale(0.08,0.08)"><g transform="" style="fill: rgb(45, 212, 191);">
<path d="M38.5,211.5c0,42.907,0,123.188,0,171.55c0,23.857,0,39.95,0,39.95v17.5V470v30h423v-30v-29.5V423c0,0,0-16.216,0-39.95
	c0-51.332,0-137.84,0-171.55C461.5,94.699,366.8,0,250,0C133.191,0,38.5,94.699,38.5,211.5z"/>
</g></g><g transform="translate(0,360) scale(0.08,0.08)"><g transform="" style="fill: rgb(45, 212, 191);">
<path d="M461.5,288.5c0-42.907,0-123.188,0-171.55c0-23.857,0-39.95,0-39.95V59.5V30V0h-423v30v29.5V77c0,0,0,16.216,0,39.95
	c0,51.332,0,137.84,0,171.55C38.5,405.301,133.2,500,250,500C366.809,500,461.5,405.301,461.5,288.5z"/>
</g></g><g transform="translate(80,360) scale(0.08,0.08)"><g transform="" style="fill: rgb(45, 212, 191);">
<path d="M461.5,288.5c0-42.907,0-123.188,0-171.55c0-23.857,0-39.95,0-39.95V59.5V30V0h-423v30v29.5V77c0,0,0,16.216,0,39.95
	c0,51.332,0,137.84,0,171.55C38.5,405.301,133.2,500,250,500C366.809,500,461.5,405.301,461.5,288.5z"/>
</g></g><g transform="translate(120,360) scale(0.08,0.08)"><g transform="" style="fill: rgb(45, 212, 191);">
<path d="M38.5,211.5c0,42.907,0,123.188,0,171.55c0,23.857,0,39.95,0,39.95v17.5V470v30h423v-30v-29.5V423c0,0,0-16.216,0-39.95
	c0-51.332,0-137.84,0-171.55C461.5,94.699,366.8,0,250,0C133.191,0,38.5,94.699,38.5,211.5z"/>
</g></g><g transform="translate(160,360) scale(0.08,0.08)"><g transform="" style="fill: rgb(45, 212, 191);">
<path d="M38.5,211.5c0,42.907,0,123.188,0,171.55c0,23.857,0,39.95,0,39.95v17.5V470v30h423v-30v-29.5V423c0,0,0-16.216,0-39.95
	c0-51.332,0-137.84,0-171.55C461.5,94.699,366.8,0,250,0C133.191,0,38.5,94.699,38.5,211.5z"/>
</g></g><g transform="translate(360,360) scale(0.08,0.08)"><g transform="" style="fill: rgb(45, 212, 191);">
<path d="M38.5,211.5c0,42.907,0,123.188,0,171.55c0,23.857,0,39.95,0,39.95v17.5V470v30h423v-30v-29.5V423c0,0,0-16.216,0-39.95
	c0-51.332,0-137.84,0-171.55C461.5,94.699,366.8,0,250,0C133.191,0,38.5,94.699,38.5,211.5z"/>
</g></g><g transform="translate(440,360) scale(0.08,0.08)"><g transform="" style="fill: rgb(45, 212, 191);">
<path d="M38.5,211.5c0,42.907,0,123.188,0,171.55c0,23.857,0,39.95,0,39.95v17.5V470v30h423v-30v-29.5V423c0,0,0-16.216,0-39.95
	c0-51.332,0-137.84,0-171.55C461.5,94.699,366.8,0,250,0C133.191,0,38.5,94.699,38.5,211.5z"/>
</g></g><g transform="translate(560,360) scale(0.08,0.08)"><g transform="" style="fill: rgb(45, 212, 191);">
<path d="M38.5,211.5c0,42.907,0,123.188,0,171.55c0,23.857,0,39.95,0,39.95v17.5V470v30h423v-30v-29.5V423c0,0,0-16.216,0-39.95
	c0-51.332,0-137.84,0-171.55C461.5,94.699,366.8,0,250,0C133.191,0,38.5,94.699,38.5,211.5z"/>
</g></g><g transform="translate(600,360) scale(0.08,0.08)"><g transform="" style="fill: rgb(45, 212, 191);">
<path d="M38.5,211.5c0,42.907,0,123.188,0,171.55c0,23.857,0,39.95,0,39.95v17.5V470v30h423v-30v-29.5V423c0,0,0-16.216,0-39.95
	c0-51.332,0-137.84,0-171.55C461.5,94.699,366.8,0,250,0C133.191,0,38.5,94.699,38.5,211.5z"/>
</g></g><g transform="translate(680,360) scale(0.08,0.08)"><g transform="" style="fill: rgb(45, 212, 191);">
<path d="M250,38.5c116.813,0,211.5,94.693,211.5,211.5c0,116.813-94.687,211.5-211.5,211.5c-116.807,0-211.5-94.687-211.5-211.5
	C38.5,133.193,133.193,38.5,250,38.5z"/>
</g></g><g transform="translate(720,360) scale(0.08,0.08)"><g transform="" style="fill: rgb(45, 212, 191);">
<path d="M38.5,211.5c0,42.907,0,123.188,0,171.55c0,23.857,0,39.95,0,39.95v17.5V470v30h423v-30v-29.5V423c0,0,0-16.216,0-39.95
	c0-51.332,0-137.84,0-171.55C461.5,94.699,366.8,0,250,0C133.191,0,38.5,94.699,38.5,211.5z"/>
</g></g><g transform="translate(760,360) scale(0.08,0.08)"><g transform="" style="fill: rgb(45, 212, 191);">
<polygon points="38.5,250 38.5,500 461.5,500 461.5,250 461.5,0 38.5,0 "/>
</g></g><g transform="translate(840,360) scale(0.08,0.08)"><g transform="" style="fill: rgb(45, 212, 191);">
<path d="M38.5,211.5c0,42.907,0,123.188,0,171.55c0,23.857,0,39.95,0,39.95v17.5V470v30h423v-30v-29.5V423c0,0,0-16.216,0-39.95
	c0-51.332,0-137.84,0-171.55C461.5,94.699,366.8,0,250,0C133.191,0,38.5,94.699,38.5,211.5z"/>
</g></g><g transform="translate(920,360) scale(0.08,0.08)"><g transform="" style="fill: rgb(45, 212, 191);">
<path d="M250,38.5c116.813,0,211.5,94.693,211.5,211.5c0,116.813-94.687,211.5-211.5,211.5c-116.807,0-211.5-94.687-211.5-211.5
	C38.5,133.193,133.193,38.5,250,38.5z"/>
</g></g><g transform="translate(960,360) scale(0.08,0.08)"><g transform="" style="fill: rgb(45, 212, 191);">
<polygon points="38.5,250 38.5,500 461.5,500 461.5,250 461.5,0 38.5,0 "/>
</g></g><g transform="translate(40,400) scale(0.08,0.08)"><g transform="" style="fill: rgb(45, 212, 191);">
<path d="M38.5,211.5c0,42.907,0,123.188,0,171.55c0,23.857,0,39.95,0,39.95v17.5V470v30h423v-30v-29.5V423c0,0,0-16.216,0-39.95
	c0-51.332,0-137.84,0-171.55C461.5,94.699,366.8,0,250,0C133.191,0,38.5,94.699,38.5,211.5z"/>
</g></g><g transform="translate(120,400) scale(0.08,0.08)"><g transform="" style="fill: rgb(45, 212, 191);">
<path d="M461.5,288.5c0-42.907,0-123.188,0-171.55c0-23.857,0-39.95,0-39.95V59.5V30V0h-423v30v29.5V77c0,0,0,16.216,0,39.95
	c0,51.332,0,137.84,0,171.55C38.5,405.301,133.2,500,250,500C366.809,500,461.5,405.301,461.5,288.5z"/>
</g></g><g transform="translate(160,400) scale(0.08,0.08)"><g transform="" style="fill: rgb(45, 212, 191);">
<path d="M461.5,288.5c0-42.907,0-123.188,0-171.55c0-23.857,0-39.95,0-39.95V59.5V30V0h-423v30v29.5V77c0,0,0,16.216,0,39.95
	c0,51.332,0,137.84,0,171.55C38.5,405.301,133.2,500,250,500C366.809,500,461.5,405.301,461.5,288.5z"/>
</g></g><g transform="translate(240,400) scale(0.08,0.08)"><g transform="" style="fill: rgb(45, 212, 191);">
<path d="M250,38.5c116.813,0,211.5,94.693,211.5,211.5c0,116.813-94.687,211.5-211.5,211.5c-116.807,0-211.5-94.687-211.5-211.5
	C38.5,133.193,133.193,38.5,250,38.5z"/>
</g></g><g transform="translate(280,400) scale(0.08,0.08)"><g transform="" style="fill: rgb(45, 212, 191);">
<path d="M38.5,211.5c0,42.907,0,123.188,0,171.55c0,23.857,0,39.95,0,39.95v17.5V470v30h423v-30v-29.5V423c0,0,0-16.216,0-39.95
	c0-51.332,0-137.84,0-171.55C461.5,94.699,366.8,0,250,0C133.191,0,38.5,94.699,38.5,211.5z"/>
</g></g><g transform="translate(360,400) scale(0.08,0.08)"><g transform="" style="fill: rgb(45, 212, 191);">
<path d="M461.5,288.5c0-42.907,0-123.188,0-171.55c0-23.857,0-39.95,0-39.95V59.5V30V0h-423v30v29.5V77c0,0,0,16.216,0,39.95
	c0,51.332,0,137.84,0,171.55C38.5,405.301,133.2,500,250,500C366.809,500,461.5,405.301,461.5,288.5z"/>
</g></g><g transform="translate(400,400) scale(0.08,0.08)"><g transform="" style="fill: rgb(45, 212, 191);">
<path d="M38.5,211.5c0,42.907,0,123.188,0,171.55c0,23.857,0,39.95,0,39.95v17.5V470v30h423v-30v-29.5V423c0,0,0-16.216,0-39.95
	c0-51.332,0-137.84,0-171.55C461.5,94.699,366.8,0,250,0C133.191,0,38.5,94.699,38.5,211.5z"/>
</g></g><g transform="translate(440,400) scale(0.08,0.08)"><g transform="" style="fill: rgb(45, 212, 191);">
<polygon points="38.5,250 38.5,500 461.5,500 461.5,250 461.5,0 38.5,0 "/>
</g></g><g transform="translate(560,400) scale(0.08,0.08)"><g transform="" style="fill: rgb(45, 212, 191);">
<path d="M461.5,288.5c0-42.907,0-123.188,0-171.55c0-23.857,0-39.95,0-39.95V59.5V30V0h-423v30v29.5V77c0,0,0,16.216,0,39.95
	c0,51.332,0,137.84,0,171.55C38.5,405.301,133.2,500,250,500C366.809,500,461.5,405.301,461.5,288.5z"/>
</g></g><g transform="translate(600,400) scale(0.08,0.08)"><g transform="" style="fill: rgb(45, 212, 191);">
<path d="M461.5,288.5c0-42.907,0-123.188,0-171.55c0-23.857,0-39.95,0-39.95V59.5V30V0h-423v30v29.5V77c0,0,0,16.216,0,39.95
	c0,51.332,0,137.84,0,171.55C38.5,405.301,133.2,500,250,500C366.809,500,461.5,405.301,461.5,288.5z"/>
</g></g><g transform="translate(720,400) scale(0.08,0.08)"><g transform="" style="fill: rgb(45, 212, 191);">
<path d="M461.5,288.5c0-42.907,0-123.188,0-171.55c0-23.857,0-39.95,0-39.95V59.5V30V0h-423v30v29.5V77c0,0,0,16.216,0,39.95
	c0,51.332,0,137.84,0,171.55C38.5,405.301,133.2,500,250,500C366.809,500,461.5,405.301,461.5,288.5z"/>
</g></g><g transform="translate(760,400) scale(0.08,0.08)"><g transform="" style="fill: rgb(45, 212, 191);">
<path d="M461.5,288.5c0-42.907,0-123.188,0-171.55c0-23.857,0-39.95,0-39.95V59.5V30V0h-423v30v29.5V77c0,0,0,16.216,0,39.95
	c0,51.332,0,137.84,0,171.55C38.5,405.301,133.2,500,250,500C366.809,500,461.5,405.301,461.5,288.5z"/>
</g></g><g transform="translate(840,400) scale(0.08,0.08)"><g transform="" style="fill: rgb(45, 212, 191);">
<polygon points="38.5,250 38.5,500 461.5,500 461.5,250 461.5,0 38.5,0 "/>
</g></g><g transform="translate(880,400) scale(0.08,0.08)"><g transform="" style="fill: rgb(45, 212, 191);">
<path d="M250,38.5c116.813,0,211.5,94.693,211.5,211.5c0,116.813-94.687,211.5-211.5,211.5c-116.807,0-211.5-94.687-211.5-211.5
	C38.5,133.193,133.193,38.5,250,38.5z"/>
</g></g><g transform="translate(960,400) scale(0.08,0.08)"><g transform="" style="fill: rgb(45, 212, 191);">
<path d="M461.5,288.5c0-42.907,0-123.188,0-171.55c0-23.857,0-39.95,0-39.95V59.5V30V0h-423v30v29.5V77c0,0,0,16.216,0,39.95
	c0,51.332,0,137.84,0,171.55C38.5,405.301,133.2,500,250,500C366.809,500,461.5,405.301,461.5,288.5z"/>
</g></g><g transform="translate(0,440) scale(0.08,0.08)"><g transform="" style="fill: rgb(45, 212, 191);">
<path d="M38.5,211.5c0,42.907,0,123.188,0,171.55c0,23.857,0,39.95,0,39.95v17.5V470v30h423v-30v-29.5V423c0,0,0-16.216,0-39.95
	c0-51.332,0-137.84,0-171.55C461.5,94.699,366.8,0,250,0C133.191,0,38.5,94.699,38.5,211.5z"/>
</g></g><g transform="translate(40,440) scale(0.08,0.08)"><g transform="" style="fill: rgb(45, 212, 191);">
<polygon points="38.5,250 38.5,500 461.5,500 461.5,250 461.5,0 38.5,0 "/>
</g></g><g transform="translate(280,440) scale(0.08,0.08)"><g transform="" style="fill: rgb(45, 212, 191);">
<polygon points="38.5,250 38.5,500 461.5,500 461.5,250 461.5,0 38.5,0 "/>
</g></g><g transform="translate(400,440) scale(0.08,0.08)"><g transform="" style="fill: rgb(45, 212, 191);">
<path d="M461.5,288.5c0-42.907,0-123.188,0-171.55c0-23.857,0-39.95,0-39.95V59.5V30V0h-423v30v29.5V77c0,0,0,16.216,0,39.95
	c0,51.332,0,137.84,0,171.55C38.5,405.301,133.2,500,250,500C366.809,500,461.5,405.301,461.5,288.5z"/>
</g></g><g transform="translate(440,440) scale(0.08,0.08)"><g transform="" style="fill: rgb(45, 212, 191);">
<polygon points="38.5,250 38.5,500 461.5,500 461.5,250 461.5,0 38.5,0 "/>
</g></g><g transform="translate(480,440) scale(0.08,0.08)"><g transform="" style="fill: rgb(45, 212, 191);">
<path d="M38.5,211.5c0,42.907,0,123.188,0,171.55c0,23.857,0,39.95,0,39.95v17.5V470v30h423v-30v-29.5V423c0,0,0-16.216,0-39.95
	c0-51.332,0-137.84,0-171.55C461.5,94.699,366.8,0,250,0C133.191,0,38.5,94.699,38.5,211.5z"/>
</g></g><g transform="translate(640,440) scale(0.08,0.08)"><g transform="" style="fill: rgb(45, 212, 191);">
<path d="M38.5,211.5c0,42.907,0,123.188,0,171.55c0,23.857,0,39.95,0,39.95v17.5V470v30h423v-30v-29.5V423c0,0,0-16.216,0-39.95
	c0-51.332,0-137.84,0-171.55C461.5,94.699,366.8,0,250,0C133.191,0,38.5,94.699,38.5,211.5z"/>
</g></g><g transform="translate(680,440) scale(0.08,0.08)"><g transform="" style="fill: rgb(45, 212, 191);">
<path d="M250,38.5c116.813,0,211.5,94.693,211.5,211.5c0,116.813-94.687,211.5-211.5,211.5c-116.807,0-211.5-94.687-211.5-211.5
	C38.5,133.193,133.193,38.5,250,38.5z"/>
</g></g><g transform="translate(840,440) scale(0.08,0.08)"><g transform="" style="fill: rgb(45, 212, 191);">
<path d="M461.5,288.5c0-42.907,0-123.188,0-171.55c0-23.857,0-39.95,0-39.95V59.5V30V0h-423v30v29.5V77c0,0,0,16.216,0,39.95
	c0,51.332,0,137.84,0,171.55C38.5,405.301,133.2,500,250,500C366.809,500,461.5,405.301,461.5,288.5z"/>
</g></g><g transform="translate(0,480) scale(0.08,0.08)"><g transform="" style="fill: rgb(45, 212, 191);">
<path d="M461.5,288.5c0-42.907,0-123.188,0-171.55c0-23.857,0-39.95,0-39.95V59.5V30V0h-423v30v29.5V77c0,0,0,16.216,0,39.95
	c0,51.332,0,137.84,0,171.55C38.5,405.301,133.2,500,250,500C366.809,500,461.5,405.301,461.5,288.5z"/>
</g></g><g transform="translate(40,480) scale(0.08,0.08)"><g transform="" style="fill: rgb(45, 212, 191);">
<path d="M461.5,288.5c0-42.907,0-123.188,0-171.55c0-23.857,0-39.95,0-39.95V59.5V30V0h-423v30v29.5V77c0,0,0,16.216,0,39.95
	c0,51.332,0,137.84,0,171.55C38.5,405.301,133.2,500,250,500C366.809,500,461.5,405.301,461.5,288.5z"/>
</g></g><g transform="translate(80,480) scale(0.08,0.08)"><g transform="" style="fill: rgb(45, 212, 191);">
<path d="M250,38.5c116.813,0,211.5,94.693,211.5,211.5c0,116.813-94.687,211.5-211.5,211.5c-116.807,0-211.5-94.687-211.5-211.5
	C38.5,133.193,133.193,38.5,250,38.5z"/>
</g></g><g transform="translate(120,480) scale(0.08,0.08)"><g transform="" style="fill: rgb(45, 212, 191);">
<path d="M38.5,211.5c0,42.907,0,123.188,0,171.55c0,23.857,0,39.95,0,39.95v17.5V470v30h423v-30v-29.5V423c0,0,0-16.216,0-39.95
	c0-51.332,0-137.84,0-171.55C461.5,94.699,366.8,0,250,0C133.191,0,38.5,94.699,38.5,211.5z"/>
</g></g><g transform="translate(240,480) scale(0.08,0.08)"><g transform="" style="fill: rgb(45, 212, 191);">
<path d="M250,38.5c116.813,0,211.5,94.693,211.5,211.5c0,116.813-94.687,211.5-211.5,211.5c-116.807,0-211.5-94.687-211.5-211.5
	C38.5,133.193,133.193,38.5,250,38.5z"/>
</g></g><g transform="translate(280,480) scale(0.08,0.08)"><g transform="" style="fill: rgb(45, 212, 191);">
<polygon points="38.5,250 38.5,500 461.5,500 461.5,250 461.5,0 38.5,0 "/>
</g></g><g transform="translate(440,480) scale(0.08,0.08)"><g transform="" style="fill: rgb(45, 212, 191);">
<path d="M461.5,288.5c0-42.907,0-123.188,0-171.55c0-23.857,0-39.95,0-39.95V59.5V30V0h-423v30v29.5V77c0,0,0,16.216,0,39.95
	c0,51.332,0,137.84,0,171.55C38.5,405.301,133.2,500,250,500C366.809,500,461.5,405.301,461.5,288.5z"/>
</g></g><g transform="translate(480,480) scale(0.08,0.08)"><g transform="" style="fill: rgb(45, 212, 191);">
<polygon points="38.5,250 38.5,500 461.5,500 461.5,250 461.5,0 38.5,0 "/>
</g></g><g transform="translate(600,480) scale(0.08,0.08)"><g transform="" style="fill: rgb(45, 212, 191);">
<path d="M38.5,211.5c0,42.907,0,123.188,0,171.55c0,23.857,0,39.95,0,39.95v17.5V470v30h423v-30v-29.5V423c0,0,0-16.216,0-39.95
	c0-51.332,0-137.84,0-171.55C461.5,94.699,366.8,0,250,0C133.191,0,38.5,94.699,38.5,211.5z"/>
</g></g><g transform="translate(640,480) scale(0.08,0.08)"><g transform="" style="fill: rgb(45, 212, 191);">
<polygon points="38.5,250 38.5,500 461.5,500 461.5,250 461.5,0 38.5,0 "/>
</g></g><g transform="translate(720,480) scale(0.08,0.08)"><g transform="" style="fill: rgb(45, 212, 191);">
<path d="M38.5,211.5c0,42.907,0,123.188,0,171.55c0,23.857,0,39.95,0,39.95v17.5V470v30h423v-30v-29.5V423c0,0,0-16.216,0-39.95
	c0-51.332,0-137.84,0-171.55C461.5,94.699,366.8,0,250,0C133.191,0,38.5,94.699,38.5,211.5z"/>
</g></g><g transform="translate(760,480) scale(0.08,0.08)"><g transform="" style="fill: rgb(45, 212, 191);">
<path d="M38.5,211.5c0,42.907,0,123.188,0,171.55c0,23.857,0,39.95,0,39.95v17.5V470v30h423v-30v-29.5V423c0,0,0-16.216,0-39.95
	c0-51.332,0-137.84,0-171.55C461.5,94.699,366.8,0,250,0C133.191,0,38.5,94.699,38.5,211.5z"/>
</g></g><g transform="translate(960,480) scale(0.08,0.08)"><g transform="" style="fill: rgb(45, 212, 191);">
<path d="M38.5,211.5c0,42.907,0,123.188,0,171.55c0,23.857,0,39.95,0,39.95v17.5V470v30h423v-30v-29.5V423c0,0,0-16.216,0-39.95
	c0-51.332,0-137.84,0-171.55C461.5,94.699,366.8,0,250,0C133.191,0,38.5,94.699,38.5,211.5z"/>
</g></g><g transform="translate(120,520) scale(0.08,0.08)"><g transform="" style="fill: rgb(45, 212, 191);">
<polygon points="38.5,250 38.5,500 461.5,500 461.5,250 461.5,0 38.5,0 "/>
</g></g><g transform="translate(160,520) scale(0.08,0.08)"><g transform="" style="fill: rgb(45, 212, 191);">
<path d="M38.5,211.5c0,42.907,0,123.188,0,171.55c0,23.857,0,39.95,0,39.95v17.5V470v30h423v-30v-29.5V423c0,0,0-16.216,0-39.95
	c0-51.332,0-137.84,0-171.55C461.5,94.699,366.8,0,250,0C133.191,0,38.5,94.699,38.5,211.5z"/>
</g></g><g transform="translate(200,520) scale(0.08,0.08)"><g transform="" style="fill: rgb(45, 212, 191);">
<path d="M250,38.5c116.813,0,211.5,94.693,211.5,211.5c0,116.813-94.687,211.5-211.5,211.5c-116.807,0-211.5-94.687-211.5-211.5
	C38.5,133.193,133.193,38.5,250,38.5z"/>
</g></g><g transform="translate(280,520) scale(0.08,0.08)"><g transform="" style="fill: rgb(45, 212, 191);">
<polygon points="38.5,250 38.5,500 461.5,500 461.5,250 461.5,0 38.5,0 "/>
</g></g><g transform="translate(320,520) scale(0.08,0.08)"><g transform="" style="fill: rgb(45, 212, 191);">
<path d="M250,38.5c116.813,0,211.5,94.693,211.5,211.5c0,116.813-94.687,211.5-211.5,211.5c-116.807,0-211.5-94.687-211.5-211.5
	C38.5,133.193,133.193,38.5,250,38.5z"/>
</g></g><g transform="translate(360,520) scale(0.08,0.08)"><g transform="" style="fill: rgb(45, 212, 191);">
<path d="M38.5,211.5c0,42.907,0,123.188,0,171.55c0,23.857,0,39.95,0,39.95v17.5V470v30h423v-30v-29.5V423c0,0,0-16.216,0-39.95
	c0-51.332,0-137.84,0-171.55C461.5,94.699,366.8,0,250,0C133.191,0,38.5,94.699,38.5,211.5z"/>
</g></g><g transform="translate(480,520) scale(0.08,0.08)"><g transform="" style="fill: rgb(45, 212, 191);">
<polygon points="38.5,250 38.5,500 461.5,500 461.5,250 461.5,0 38.5,0 "/>
</g></g><g transform="translate(520,520) scale(0.08,0.08)"><g transform="" style="fill: rgb(45, 212, 191);">
<path d="M250,38.5c116.813,0,211.5,94.693,211.5,211.5c0,116.813-94.687,211.5-211.5,211.5c-116.807,0-211.5-94.687-211.5-211.5
	C38.5,133.193,133.193,38.5,250,38.5z"/>
</g></g><g transform="translate(600,520) scale(0.08,0.08)"><g transform="" style="fill: rgb(45, 212, 191);">
<polygon points="38.5,250 38.5,500 461.5,500 461.5,250 461.5,0 38.5,0 "/>
</g></g><g transform="translate(640,520) scale(0.08,0.08)"><g transform="" style="fill: rgb(45, 212, 191);">
<path d="M461.5,288.5c0-42.907,0-123.188,0-171.55c0-23.857,0-39.95,0-39.95V59.5V30V0h-423v30v29.5V77c0,0,0,16.216,0,39.95
	c0,51.332,0,137.84,0,171.55C38.5,405.301,133.2,500,250,500C366.809,500,461.5,405.301,461.5,288.5z"/>
</g></g><g transform="translate(720,520) scale(0.08,0.08)"><g transform="" style="fill: rgb(45, 212, 191);">
<path d="M461.5,288.5c0-42.907,0-123.188,0-171.55c0-23.857,0-39.95,0-39.95V59.5V30V0h-423v30v29.5V77c0,0,0,16.216,0,39.95
	c0,51.332,0,137.84,0,171.55C38.5,405.301,133.2,500,250,500C366.809,500,461.5,405.301,461.5,288.5z"/>
</g></g><g transform="translate(760,520) scale(0.08,0.08)"><g transform="" style="fill: rgb(45, 212, 191);">
<path d="M461.5,288.5c0-42.907,0-123.188,0-171.55c0-23.857,0-39.95,0-39.95V59.5V30V0h-423v30v29.5V77c0,0,0,16.216,0,39.95
	c0,51.332,0,137.84,0,171.55C38.5,405.301,133.2,500,250,500C366.809,500,461.5,405.301,461.5,288.5z"/>
</g></g><g transform="translate(920,520) scale(0.08,0.08)"><g transform="" style="fill: rgb(45, 212, 191);">
<path d="M250,38.5c116.813,0,211.5,94.693,211.5,211.5c0,116.813-94.687,211.5-211.5,211.5c-116.807,0-211.5-94.687-211.5-211.5
	C38.5,133.193,133.193,38.5,250,38.5z"/>
</g></g><g transform="translate(960,520) scale(0.08,0.08)"><g transform="" style="fill: rgb(45, 212, 191);">
<polygon points="38.5,250 38.5,500 461.5,500 461.5,250 461.5,0 38.5,0 "/>
</g></g><g transform="translate(0,560) scale(0.08,0.08)"><g transform="" style="fill: rgb(45, 212, 191);">
<path d="M250,38.5c116.813,0,211.5,94.693,211.5,211.5c0,116.813-94.687,211.5-211.5,211.5c-116.807,0-211.5-94.687-211.5-211.5
	C38.5,133.193,133.193,38.5,250,38.5z"/>
</g></g><g transform="translate(40,560) scale(0.08,0.08)"><g transform="" style="fill: rgb(45, 212, 191);">
<path d="M250,38.5c116.813,0,211.5,94.693,211.5,211.5c0,116.813-94.687,211.5-211.5,211.5c-116.807,0-211.5-94.687-211.5-211.5
	C38.5,133.193,133.193,38.5,250,38.5z"/>
</g></g><g transform="translate(120,560) scale(0.08,0.08)"><g transform="" style="fill: rgb(45, 212, 191);">
<polygon points="38.5,250 38.5,500 461.5,500 461.5,250 461.5,0 38.5,0 "/>
</g></g><g transform="translate(160,560) scale(0.08,0.08)"><g transform="" style="fill: rgb(45, 212, 191);">
<path d="M461.5,288.5c0-42.907,0-123.188,0-171.55c0-23.857,0-39.95,0-39.95V59.5V30V0h-423v30v29.5V77c0,0,0,16.216,0,39.95
	c0,51.332,0,137.84,0,171.55C38.5,405.301,133.2,500,250,500C366.809,500,461.5,405.301,461.5,288.5z"/>
</g></g><g transform="translate(240,560) scale(0.08,0.08)"><g transform="" style="fill: rgb(45, 212, 191);">
<path d="M250,38.5c116.813,0,211.5,94.693,211.5,211.5c0,116.813-94.687,211.5-211.5,211.5c-116.807,0-211.5-94.687-211.5-211.5
	C38.5,133.193,133.193,38.5,250,38.5z"/>
</g></g><g transform="translate(280,560) scale(0.08,0.08)"><g transform="" style="fill: rgb(45, 212, 191);">
<polygon points="38.5,250 38.5,500 461.5,500 461.5,250 461.5,0 38.5,0 "/>
</g></g><g transform="translate(360,560) scale(0.08,0.08)"><g transform="" style="fill: rgb(45, 212, 191);">
<polygon points="38.5,250 38.5,500 461.5,500 461.5,250 461.5,0 38.5,0 "/>
</g></g><g transform="translate(480,560) scale(0.08,0.08)"><g transform="" style="fill: rgb(45, 212, 191);">
<polygon points="38.5,250 38.5,500 461.5,500 461.5,250 461.5,0 38.5,0 "/>
</g></g><g transform="translate(600,560) scale(0.08,0.08)"><g transform="" style="fill: rgb(45, 212, 191);">
<path d="M461.5,288.5c0-42.907,0-123.188,0-171.55c0-23.857,0-39.95,0-39.95V59.5V30V0h-423v30v29.5V77c0,0,0,16.216,0,39.95
	c0,51.332,0,137.84,0,171.55C38.5,405.301,133.2,500,250,500C366.809,500,461.5,405.301,461.5,288.5z"/>
</g></g><g transform="translate(840,560) scale(0.08,0.08)"><g transform="" style="fill: rgb(45, 212, 191);">
<path d="M38.5,211.5c0,42.907,0,123.188,0,171.55c0,23.857,0,39.95,0,39.95v17.5V470v30h423v-30v-29.5V423c0,0,0-16.216,0-39.95
	c0-51.332,0-137.84,0-171.55C461.5,94.699,366.8,0,250,0C133.191,0,38.5,94.699,38.5,211.5z"/>
</g></g><g transform="translate(880,560) scale(0.08,0.08)"><g transform="" style="fill: rgb(45, 212, 191);">
<path d="M250,38.5c116.813,0,211.5,94.693,211.5,211.5c0,116.813-94.687,211.5-211.5,211.5c-116.807,0-211.5-94.687-211.5-211.5
	C38.5,133.193,133.193,38.5,250,38.5z"/>
</g></g><g transform="translate(960,560) scale(0.08,0.08)"><g transform="" style="fill: rgb(45, 212, 191);">
<path d="M461.5,288.5c0-42.907,0-123.188,0-171.55c0-23.857,0-39.95,0-39.95V59.5V30V0h-423v30v29.5V77c0,0,0,16.216,0,39.95
	c0,51.332,0,137.84,0,171.55C38.5,405.301,133.2,500,250,500C366.809,500,461.5,405.301,461.5,288.5z"/>
</g></g><g transform="translate(80,600) scale(0.08,0.08)"><g transform="" style="fill: rgb(45, 212, 191);">
<path d="M250,38.5c116.813,0,211.5,94.693,211.5,211.5c0,116.813-94.687,211.5-211.5,211.5c-116.807,0-211.5-94.687-211.5-211.5
	C38.5,133.193,133.193,38.5,250,38.5z"/>
</g></g><g transform="translate(120,600) scale(0.08,0.08)"><g transform="" style="fill: rgb(45, 212, 191);">
<polygon points="38.5,250 38.5,500 461.5,500 461.5,250 461.5,0 38.5,0 "/>
</g></g><g transform="translate(280,600) scale(0.08,0.08)"><g transform="" style="fill: rgb(45, 212, 191);">
<path d="M461.5,288.5c0-42.907,0-123.188,0-171.55c0-23.857,0-39.95,0-39.95V59.5V30V0h-423v30v29.5V77c0,0,0,16.216,0,39.95
	c0,51.332,0,137.84,0,171.55C38.5,405.301,133.2,500,250,500C366.809,500,461.5,405.301,461.5,288.5z"/>
</g></g><g transform="translate(360,600) scale(0.08,0.08)"><g transform="" style="fill: rgb(45, 212, 191);">
<polygon points="38.5,250 38.5,500 461.5,500 461.5,250 461.5,0 38.5,0 "/>
</g></g><g transform="translate(440,600) scale(0.08,0.08)"><g transform="" style="fill: rgb(45, 212, 191);">
<path d="M250,38.5c116.813,0,211.5,94.693,211.5,211.5c0,116.813-94.687,211.5-211.5,211.5c-116.807,0-211.5-94.687-211.5-211.5
	C38.5,133.193,133.193,38.5,250,38.5z"/>
</g></g><g transform="translate(480,600) scale(0.08,0.08)"><g transform="" style="fill: rgb(45, 212, 191);">
<path d="M461.5,288.5c0-42.907,0-123.188,0-171.55c0-23.857,0-39.95,0-39.95V59.5V30V0h-423v30v29.5V77c0,0,0,16.216,0,39.95
	c0,51.332,0,137.84,0,171.55C38.5,405.301,133.2,500,250,500C366.809,500,461.5,405.301,461.5,288.5z"/>
</g></g><g transform="translate(560,600) scale(0.08,0.08)"><g transform="" style="fill: rgb(45, 212, 191);">
<path d="M250,38.5c116.813,0,211.5,94.693,211.5,211.5c0,116.813-94.687,211.5-211.5,211.5c-116.807,0-211.5-94.687-211.5-211.5
	C38.5,133.193,133.193,38.5,250,38.5z"/>
</g></g><g transform="translate(640,600) scale(0.08,0.08)"><g transform="" style="fill: rgb(45, 212, 191);">
<path d="M38.5,211.5c0,42.907,0,123.188,0,171.55c0,23.857,0,39.95,0,39.95v17.5V470v30h423v-30v-29.5V423c0,0,0-16.216,0-39.95
	c0-51.332,0-137.84,0-171.55C461.5,94.699,366.8,0,250,0C133.191,0,38.5,94.699,38.5,211.5z"/>
</g></g><g transform="translate(720,600) scale(0.08,0.08)"><g transform="" style="fill: rgb(45, 212, 191);">
<path d="M38.5,211.5c0,42.907,0,123.188,0,171.55c0,23.857,0,39.95,0,39.95v17.5V470v30h423v-30v-29.5V423c0,0,0-16.216,0-39.95
	c0-51.332,0-137.84,0-171.55C461.5,94.699,366.8,0,250,0C133.191,0,38.5,94.699,38.5,211.5z"/>
</g></g><g transform="translate(760,600) scale(0.08,0.08)"><g transform="" style="fill: rgb(45, 212, 191);">
<path d="M38.5,211.5c0,42.907,0,123.188,0,171.55c0,23.857,0,39.95,0,39.95v17.5V470v30h423v-30v-29.5V423c0,0,0-16.216,0-39.95
	c0-51.332,0-137.84,0-171.55C461.5,94.699,366.8,0,250,0C133.191,0,38.5,94.699,38.5,211.5z"/>
</g></g><g transform="translate(800,600) scale(0.08,0.08)"><g transform="" style="fill: rgb(45, 212, 191);">
<path d="M38.5,211.5c0,42.907,0,123.188,0,171.55c0,23.857,0,39.95,0,39.95v17.5V470v30h423v-30v-29.5V423c0,0,0-16.216,0-39.95
	c0-51.332,0-137.84,0-171.55C461.5,94.699,366.8,0,250,0C133.191,0,38.5,94.699,38.5,211.5z"/>
</g></g><g transform="translate(840,600) scale(0.08,0.08)"><g transform="" style="fill: rgb(45, 212, 191);">
<path d="M461.5,288.5c0-42.907,0-123.188,0-171.55c0-23.857,0-39.95,0-39.95V59.5V30V0h-423v30v29.5V77c0,0,0,16.216,0,39.95
	c0,51.332,0,137.84,0,171.55C38.5,405.301,133.2,500,250,500C366.809,500,461.5,405.301,461.5,288.5z"/>
</g></g><g transform="translate(0,640) scale(0.08,0.08)"><g transform="" style="fill: rgb(45, 212, 191);">
<path d="M250,38.5c116.813,0,211.5,94.693,211.5,211.5c0,116.813-94.687,211.5-211.5,211.5c-116.807,0-211.5-94.687-211.5-211.5
	C38.5,133.193,133.193,38.5,250,38.5z"/>
</g></g><g transform="translate(40,640) scale(0.08,0.08)"><g transform="" style="fill: rgb(45, 212, 191);">
<path d="M250,38.5c116.813,0,211.5,94.693,211.5,211.5c0,116.813-94.687,211.5-211.5,211.5c-116.807,0-211.5-94.687-211.5-211.5
	C38.5,133.193,133.193,38.5,250,38.5z"/>
</g></g><g transform="translate(120,640) scale(0.08,0.08)"><g transform="" style="fill: rgb(45, 212, 191);">
<path d="M461.5,288.5c0-42.907,0-123.188,0-171.55c0-23.857,0-39.95,0-39.95V59.5V30V0h-423v30v29.5V77c0,0,0,16.216,0,39.95
	c0,51.332,0,137.84,0,171.55C38.5,405.301,133.2,500,250,500C366.809,500,461.5,405.301,461.5,288.5z"/>
</g></g><g transform="translate(200,640) scale(0.08,0.08)"><g transform="" style="fill: rgb(45, 212, 191);">
<path d="M250,38.5c116.813,0,211.5,94.693,211.5,211.5c0,116.813-94.687,211.5-211.5,211.5c-116.807,0-211.5-94.687-211.5-211.5
	C38.5,133.193,133.193,38.5,250,38.5z"/>
</g></g><g transform="translate(240,640) scale(0.08,0.08)"><g transform="" style="fill: rgb(45, 212, 191);">
<path d="M250,38.5c116.813,0,211.5,94.693,211.5,211.5c0,116.813-94.687,211.5-211.5,211.5c-116.807,0-211.5-94.687-211.5-211.5
	C38.5,133.193,133.193,38.5,250,38.5z"/>
</g></g><g transform="translate(360,640) scale(0.08,0.08)"><g transform="" style="fill: rgb(45, 212, 191);">
<path d="M461.5,288.5c0-42.907,0-123.188,0-171.55c0-23.857,0-39.95,0-39.95V59.5V30V0h-423v30v29.5V77c0,0,0,16.216,0,39.95
	c0,51.332,0,137.84,0,171.55C38.5,405.301,133.2,500,250,500C366.809,500,461.5,405.301,461.5,288.5z"/>
</g></g><g transform="translate(640,640) scale(0.08,0.08)"><g transform="" style="fill: rgb(45, 212, 191);">
<polygon points="38.5,250 38.5,500 461.5,500 461.5,250 461.5,0 38.5,0 "/>
</g></g><g transform="translate(680,640) scale(0.08,0.08)"><g transform="" style="fill: rgb(45, 212, 191);">
<path d="M250,38.5c116.813,0,211.5,94.693,211.5,211.5c0,116.813-94.687,211.5-211.5,211.5c-116.807,0-211.5-94.687-211.5-211.5
	C38.5,133.193,133.193,38.5,250,38.5z"/>
</g></g><g transform="translate(720,640) scale(0.08,0.08)"><g transform="" style="fill: rgb(45, 212, 191);">
<path d="M461.5,288.5c0-42.907,0-123.188,0-171.55c0-23.857,0-39.95,0-39.95V59.5V30V0h-423v30v29.5V77c0,0,0,16.216,0,39.95
	c0,51.332,0,137.84,0,171.55C38.5,405.301,133.2,500,250,500C366.809,500,461.5,405.301,461.5,288.5z"/>
</g></g><g transform="translate(760,640) scale(0.08,0.08)"><g transform="" style="fill: rgb(45, 212, 191);">
<path d="M461.5,288.5c0-42.907,0-123.188,0-171.55c0-23.857,0-39.95,0-39.95V59.5V30V0h-423v30v29.5V77c0,0,0,16.216,0,39.95
	c0,51.332,0,137.84,0,171.55C38.5,405.301,133.2,500,250,500C366.809,500,461.5,405.301,461.5,288.5z"/>
</g></g><g transform="translate(800,640) scale(0.08,0.08)"><g transform="" style="fill: rgb(45, 212, 191);">
<polygon points="38.5,250 38.5,500 461.5,500 461.5,250 461.5,0 38.5,0 "/>
</g></g><g transform="translate(920,640) scale(0.08,0.08)"><g transform="" style="fill: rgb(45, 212, 191);">
<path d="M250,38.5c116.813,0,211.5,94.693,211.5,211.5c0,116.813-94.687,211.5-211.5,211.5c-116.807,0-211.5-94.687-211.5-211.5
	C38.5,133.193,133.193,38.5,250,38.5z"/>
</g></g><g transform="translate(320,680) scale(0.08,0.08)"><g transform="" style="fill: rgb(45, 212, 191);">
<path d="M38.5,211.5c0,42.907,0,123.188,0,171.55c0,23.857,0,39.95,0,39.95v17.5V470v30h423v-30v-29.5V423c0,0,0-16.216,0-39.95
	c0-51.332,0-137.84,0-171.55C461.5,94.699,366.8,0,250,0C133.191,0,38.5,94.699,38.5,211.5z"/>
</g></g><g transform="translate(520,680) scale(0.08,0.08)"><g transform="" style="fill: rgb(45, 212, 191);">
<path d="M250,38.5c116.813,0,211.5,94.693,211.5,211.5c0,116.813-94.687,211.5-211.5,211.5c-116.807,0-211.5-94.687-211.5-211.5
	C38.5,133.193,133.193,38.5,250,38.5z"/>
</g></g><g transform="translate(640,680) scale(0.08,0.08)"><g transform="" style="fill: rgb(45, 212, 191);">
<polygon points="38.5,250 38.5,500 461.5,500 461.5,250 461.5,0 38.5,0 "/>
</g></g><g transform="translate(800,680) scale(0.08,0.08)"><g transform="" style="fill: rgb(45, 212, 191);">
<polygon points="38.5,250 38.5,500 461.5,500 461.5,250 461.5,0 38.5,0 "/>
</g></g><g transform="translate(960,680) scale(0.08,0.08)"><g transform="" style="fill: rgb(45, 212, 191);">
<path d="M38.5,211.5c0,42.907,0,123.188,0,171.55c0,23.857,0,39.95,0,39.95v17.5V470v30h423v-30v-29.5V423c0,0,0-16.216,0-39.95
	c0-51.332,0-137.84,0-171.55C461.5,94.699,366.8,0,250,0C133.191,0,38.5,94.699,38.5,211.5z"/>
</g></g><g transform="translate(320,720) scale(0.08,0.08)"><g transform="" style="fill: rgb(45, 212, 191);">
<path d="M461.5,288.5c0-42.907,0-123.188,0-171.55c0-23.857,0-39.95,0-39.95V59.5V30V0h-423v30v29.5V77c0,0,0,16.216,0,39.95
	c0,51.332,0,137.84,0,171.55C38.5,405.301,133.2,500,250,500C366.809,500,461.5,405.301,461.5,288.5z"/>
</g></g><g transform="translate(400,720) scale(0.08,0.08)"><g transform="" style="fill: rgb(45, 212, 191);">
<path d="M38.5,211.5c0,42.907,0,123.188,0,171.55c0,23.857,0,39.95,0,39.95v17.5V470v30h423v-30v-29.5V423c0,0,0-16.216,0-39.95
	c0-51.332,0-137.84,0-171.55C461.5,94.699,366.8,0,250,0C133.191,0,38.5,94.699,38.5,211.5z"/>
</g></g><g transform="translate(440,720) scale(0.08,0.08)"><g transform="" style="fill: rgb(45, 212, 191);">
<path d="M250,38.5c116.813,0,211.5,94.693,211.5,211.5c0,116.813-94.687,211.5-211.5,211.5c-116.807,0-211.5-94.687-211.5-211.5
	C38.5,133.193,133.193,38.5,250,38.5z"/>
</g></g><g transform="translate(640,720) scale(0.08,0.08)"><g transform="" style="fill: rgb(45, 212, 191);">
<polygon points="38.5,250 38.5,500 461.5,500 461.5,250 461.5,0 38.5,0 "/>
</g></g><g transform="translate(720,720) scale(0.08,0.08)"><g transform="" style="fill: rgb(45, 212, 191);">
<path d="M250,38.5c116.813,0,211.5,94.693,211.5,211.5c0,116.813-94.687,211.5-211.5,211.5c-116.807,0-211.5-94.687-211.5-211.5
	C38.5,133.193,133.193,38.5,250,38.5z"/>
</g></g><g transform="translate(800,720) scale(0.08,0.08)"><g transform="" style="fill: rgb(45, 212, 191);">
<polygon points="38.5,250 38.5,500 461.5,500 461.5,250 461.5,0 38.5,0 "/>
</g></g><g transform="translate(960,720) scale(0.08,0.08)"><g transform="" style="fill: rgb(45, 212, 191);">
<polygon points="38.5,250 38.5,500 461.5,500 461.5,250 461.5,0 38.5,0 "/>
</g></g><g transform="translate(360,760) scale(0.08,0.08)"><g transform="" style="fill: rgb(45, 212, 191);">
<path d="M250,38.5c116.813,0,211.5,94.693,211.5,211.5c0,116.813-94.687,211.5-211.5,211.5c-116.807,0-211.5-94.687-211.5-211.5
	C38.5,133.193,133.193,38.5,250,38.5z"/>
</g></g><g transform="translate(400,760) scale(0.08,0.08)"><g transform="" style="fill: rgb(45, 212, 191);">
<polygon points="38.5,250 38.5,500 461.5,500 461.5,250 461.5,0 38.5,0 "/>
</g></g><g transform="translate(560,760) scale(0.08,0.08)"><g transform="" style="fill: rgb(45, 212, 191);">
<path d="M250,38.5c116.813,0,211.5,94.693,211.5,211.5c0,116.813-94.687,211.5-211.5,211.5c-116.807,0-211.5-94.687-211.5-211.5
	C38.5,133.193,133.193,38.5,250,38.5z"/>
</g></g><g transform="translate(600,760) scale(0.08,0.08)"><g transform="" style="fill: rgb(45, 212, 191);">
<path d="M38.5,211.5c0,42.907,0,123.188,0,171.55c0,23.857,0,39.95,0,39.95v17.5V470v30h423v-30v-29.5V423c0,0,0-16.216,0-39.95
	c0-51.332,0-137.84,0-171.55C461.5,94.699,366.8,0,250,0C133.191,0,38.5,94.699,38.5,211.5z"/>
</g></g><g transform="translate(640,760) scale(0.08,0.08)"><g transform="" style="fill: rgb(45, 212, 191);">
<polygon points="38.5,250 38.5,500 461.5,500 461.5,250 461.5,0 38.5,0 "/>
</g></g><g transform="translate(800,760) scale(0.08,0.08)"><g transform="" style="fill: rgb(45, 212, 191);">
<polygon points="38.5,250 38.5,500 461.5,500 461.5,250 461.5,0 38.5,0 "/>
</g></g><g transform="translate(920,760) scale(0.08,0.08)"><g transform="" style="fill: rgb(45, 212, 191);">
<path d="M250,38.5c116.813,0,211.5,94.693,211.5,211.5c0,116.813-94.687,211.5-211.5,211.5c-116.807,0-211.5-94.687-211.5-211.5
	C38.5,133.193,133.193,38.5,250,38.5z"/>
</g></g><g transform="translate(960,760) scale(0.08,0.08)"><g transform="" style="fill: rgb(45, 212, 191);">
<polygon points="38.5,250 38.5,500 461.5,500 461.5,250 461.5,0 38.5,0 "/>
</g></g><g transform="translate(400,800) scale(0.08,0.08)"><g transform="" style="fill: rgb(45, 212, 191);">
<polygon points="38.5,250 38.5,500 461.5,500 461.5,250 461.5,0 38.5,0 "/>
</g></g><g transform="translate(440,800) scale(0.08,0.08)"><g transform="" style="fill: rgb(45, 212, 191);">
<path d="M250,38.5c116.813,0,211.5,94.693,211.5,211.5c0,116.813-94.687,211.5-211.5,211.5c-116.807,0-211.5-94.687-211.5-211.5
	C38.5,133.193,133.193,38.5,250,38.5z"/>
</g></g><g transform="translate(480,800) scale(0.08,0.08)"><g transform="" style="fill: rgb(45, 212, 191);">
<path d="M38.5,211.5c0,42.907,0,123.188,0,171.55c0,23.857,0,39.95,0,39.95v17.5V470v30h423v-30v-29.5V423c0,0,0-16.216,0-39.95
	c0-51.332,0-137.84,0-171.55C461.5,94.699,366.8,0,250,0C133.191,0,38.5,94.699,38.5,211.5z"/>
</g></g><g transform="translate(600,800) scale(0.08,0.08)"><g transform="" style="fill: rgb(45, 212, 191);">
<path d="M461.5,288.5c0-42.907,0-123.188,0-171.55c0-23.857,0-39.95,0-39.95V59.5V30V0h-423v30v29.5V77c0,0,0,16.216,0,39.95
	c0,51.332,0,137.84,0,171.55C38.5,405.301,133.2,500,250,500C366.809,500,461.5,405.301,461.5,288.5z"/>
</g></g><g transform="translate(640,800) scale(0.08,0.08)"><g transform="" style="fill: rgb(45, 212, 191);">
<polygon points="38.5,250 38.5,500 461.5,500 461.5,250 461.5,0 38.5,0 "/>
</g></g><g transform="translate(680,800) scale(0.08,0.08)"><g transform="" style="fill: rgb(45, 212, 191);">
<path d="M38.5,211.5c0,42.907,0,123.188,0,171.55c0,23.857,0,39.95,0,39.95v17.5V470v30h423v-30v-29.5V423c0,0,0-16.216,0-39.95
	c0-51.332,0-137.84,0-171.55C461.5,94.699,366.8,0,250,0C133.191,0,38.5,94.699,38.5,211.5z"/>
</g></g><g transform="translate(720,800) scale(0.08,0.08)"><g transform="" style="fill: rgb(45, 212, 191);">
<path d="M250,38.5c116.813,0,211.5,94.693,211.5,211.5c0,116.813-94.687,211.5-211.5,211.5c-116.807,0-211.5-94.687-211.5-211.5
	C38.5,133.193,133.193,38.5,250,38.5z"/>
</g></g><g transform="translate(760,800) scale(0.08,0.08)"><g transform="" style="fill: rgb(45, 212, 191);">
<path d="M250,38.5c116.813,0,211.5,94.693,211.5,211.5c0,116.813-94.687,211.5-211.5,211.5c-116.807,0-211.5-94.687-211.5-211.5
	C38.5,133.193,133.193,38.5,250,38.5z"/>
</g></g><g transform="translate(800,800) scale(0.08,0.08)"><g transform="" style="fill: rgb(45, 212, 191);">
<polygon points="38.5,250 38.5,500 461.5,500 461.5,250 461.5,0 38.5,0 "/>
</g></g><g transform="translate(960,800) scale(0.08,0.08)"><g transform="" style="fill: rgb(45, 212, 191);">
<path d="M461.5,288.5c0-42.907,0-123.188,0-171.55c0-23.857,0-39.95,0-39.95V59.5V30V0h-423v30v29.5V77c0,0,0,16.216,0,39.95
	c0,51.332,0,137.84,0,171.55C38.5,405.301,133.2,500,250,500C366.809,500,461.5,405.301,461.5,288.5z"/>
</g></g><g transform="translate(400,840) scale(0.08,0.08)"><g transform="" style="fill: rgb(45, 212, 191);">
<polygon points="38.5,250 38.5,500 461.5,500 461.5,250 461.5,0 38.5,0 "/>
</g></g><g transform="translate(480,840) scale(0.08,0.08)"><g transform="" style="fill: rgb(45, 212, 191);">
<polygon points="38.5,250 38.5,500 461.5,500 461.5,250 461.5,0 38.5,0 "/>
</g></g><g transform="translate(520,840) scale(0.08,0.08)"><g transform="" style="fill: rgb(45, 212, 191);">
<path d="M38.5,211.5c0,42.907,0,123.188,0,171.55c0,23.857,0,39.95,0,39.95v17.5V470v30h423v-30v-29.5V423c0,0,0-16.216,0-39.95
	c0-51.332,0-137.84,0-171.55C461.5,94.699,366.8,0,250,0C133.191,0,38.5,94.699,38.5,211.5z"/>
</g></g><g transform="translate(640,840) scale(0.08,0.08)"><g transform="" style="fill: rgb(45, 212, 191);">
<path d="M461.5,288.5c0-42.907,0-123.188,0-171.55c0-23.857,0-39.95,0-39.95V59.5V30V0h-423v30v29.5V77c0,0,0,16.216,0,39.95
	c0,51.332,0,137.84,0,171.55C38.5,405.301,133.2,500,250,500C366.809,500,461.5,405.301,461.5,288.5z"/>
</g></g><g transform="translate(680,840) scale(0.08,0.08)"><g transform="" style="fill: rgb(45, 212, 191);">
<path d="M461.5,288.5c0-42.907,0-123.188,0-171.55c0-23.857,0-39.95,0-39.95V59.5V30V0h-423v30v29.5V77c0,0,0,16.216,0,39.95
	c0,51.332,0,137.84,0,171.55C38.5,405.301,133.2,500,250,500C366.809,500,461.5,405.301,461.5,288.5z"/>
</g></g><g transform="translate(800,840) scale(0.08,0.08)"><g transform="" style="fill: rgb(45, 212, 191);">
<polygon points="38.5,250 38.5,500 461.5,500 461.5,250 461.5,0 38.5,0 "/>
</g></g><g transform="translate(880,840) scale(0.08,0.08)"><g transform="" style="fill: rgb(45, 212, 191);">
<path d="M250,38.5c116.813,0,211.5,94.693,211.5,211.5c0,116.813-94.687,211.5-211.5,211.5c-116.807,0-211.5-94.687-211.5-211.5
	C38.5,133.193,133.193,38.5,250,38.5z"/>
</g></g><g transform="translate(920,840) scale(0.08,0.08)"><g transform="" style="fill: rgb(45, 212, 191);">
<path d="M38.5,211.5c0,42.907,0,123.188,0,171.55c0,23.857,0,39.95,0,39.95v17.5V470v30h423v-30v-29.5V423c0,0,0-16.216,0-39.95
	c0-51.332,0-137.84,0-171.55C461.5,94.699,366.8,0,250,0C133.191,0,38.5,94.699,38.5,211.5z"/>
</g></g><g transform="translate(320,880) scale(0.08,0.08)"><g transform="" style="fill: rgb(45, 212, 191);">
<path d="M250,38.5c116.813,0,211.5,94.693,211.5,211.5c0,116.813-94.687,211.5-211.5,211.5c-116.807,0-211.5-94.687-211.5-211.5
	C38.5,133.193,133.193,38.5,250,38.5z"/>
</g></g><g transform="translate(400,880) scale(0.08,0.08)"><g transform="" style="fill: rgb(45, 212, 191);">
<polygon points="38.5,250 38.5,500 461.5,500 461.5,250 461.5,0 38.5,0 "/>
</g></g><g transform="translate(480,880) scale(0.08,0.08)"><g transform="" style="fill: rgb(45, 212, 191);">
<polygon points="38.5,250 38.5,500 461.5,500 461.5,250 461.5,0 38.5,0 "/>
</g></g><g transform="translate(520,880) scale(0.08,0.08)"><g transform="" style="fill: rgb(45, 212, 191);">
<path d="M461.5,288.5c0-42.907,0-123.188,0-171.55c0-23.857,0-39.95,0-39.95V59.5V30V0h-423v30v29.5V77c0,0,0,16.216,0,39.95
	c0,51.332,0,137.84,0,171.55C38.5,405.301,133.2,500,250,500C366.809,500,461.5,405.301,461.5,288.5z"/>
</g></g><g transform="translate(760,880) scale(0.08,0.08)"><g transform="" style="fill: rgb(45, 212, 191);">
<path d="M38.5,211.5c0,42.907,0,123.188,0,171.55c0,23.857,0,39.95,0,39.95v17.5V470v30h423v-30v-29.5V423c0,0,0-16.216,0-39.95
	c0-51.332,0-137.84,0-171.55C461.5,94.699,366.8,0,250,0C133.191,0,38.5,94.699,38.5,211.5z"/>
</g></g><g transform="translate(800,880) scale(0.08,0.08)"><g transform="" style="fill: rgb(45, 212, 191);">
<polygon points="38.5,250 38.5,500 461.5,500 461.5,250 461.5,0 38.5,0 "/>
</g></g><g transform="translate(840,880) scale(0.08,0.08)"><g transform="" style="fill: rgb(45, 212, 191);">
<path d="M250,38.5c116.813,0,211.5,94.693,211.5,211.5c0,116.813-94.687,211.5-211.5,211.5c-116.807,0-211.5-94.687-211.5-211.5
	C38.5,133.193,133.193,38.5,250,38.5z"/>
</g></g><g transform="translate(920,880) scale(0.08,0.08)"><g transform="" style="fill: rgb(45, 212, 191);">
<path d="M461.5,288.5c0-42.907,0-123.188,0-171.55c0-23.857,0-39.95,0-39.95V59.5V30V0h-423v30v29.5V77c0,0,0,16.216,0,39.95
	c0,51.332,0,137.84,0,171.55C38.5,405.301,133.2,500,250,500C366.809,500,461.5,405.301,461.5,288.5z"/>
</g></g><g transform="translate(960,880) scale(0.08,0.08)"><g transform="" style="fill: rgb(45, 212, 191);">
<path d="M250,38.5c116.813,0,211.5,94.693,211.5,211.5c0,116.813-94.687,211.5-211.5,211.5c-116.807,0-211.5-94.687-211.5-211.5
	C38.5,133.193,133.193,38.5,250,38.5z"/>
</g></g><g transform="translate(400,920) scale(0.08,0.08)"><g transform="" style="fill: rgb(45, 212, 191);">
<path d="M461.5,288.5c0-42.907,0-123.188,0-171.55c0-23.857,0-39.95,0-39.95V59.5V30V0h-423v30v29.5V77c0,0,0,16.216,0,39.95
	c0,51.332,0,137.84,0,171.55C38.5,405.301,133.2,500,250,500C366.809,500,461.5,405.301,461.5,288.5z"/>
</g></g><g transform="translate(440,920) scale(0.08,0.08)"><g transform="" style="fill: rgb(45, 212, 191);">
<path d="M250,38.5c116.813,0,211.5,94.693,211.5,211.5c0,116.813-94.687,211.5-211.5,211.5c-116.807,0-211.5-94.687-211.5-211.5
	C38.5,133.193,133.193,38.5,250,38.5z"/>
</g></g><g transform="translate(480,920) scale(0.08,0.08)"><g transform="" style="fill: rgb(45, 212, 191);">
<polygon points="38.5,250 38.5,500 461.5,500 461.5,250 461.5,0 38.5,0 "/>
</g></g><g transform="translate(560,920) scale(0.08,0.08)"><g transform="" style="fill: rgb(45, 212, 191);">
<path d="M38.5,211.5c0,42.907,0,123.188,0,171.55c0,23.857,0,39.95,0,39.95v17.5V470v30h423v-30v-29.5V423c0,0,0-16.216,0-39.95
	c0-51.332,0-137.84,0-171.55C461.5,94.699,366.8,0,250,0C133.191,0,38.5,94.699,38.5,211.5z"/>
</g></g><g transform="translate(640,920) scale(0.08,0.08)"><g transform="" style="fill: rgb(45, 212, 191);">
<path d="M38.5,211.5c0,42.907,0,123.188,0,171.55c0,23.857,0,39.95,0,39.95v17.5V470v30h423v-30v-29.5V423c0,0,0-16.216,0-39.95
	c0-51.332,0-137.84,0-171.55C461.5,94.699,366.8,0,250,0C133.191,0,38.5,94.699,38.5,211.5z"/>
</g></g><g transform="translate(760,920) scale(0.08,0.08)"><g transform="" style="fill: rgb(45, 212, 191);">
<path d="M461.5,288.5c0-42.907,0-123.188,0-171.55c0-23.857,0-39.95,0-39.95V59.5V30V0h-423v30v29.5V77c0,0,0,16.216,0,39.95
	c0,51.332,0,137.84,0,171.55C38.5,405.301,133.2,500,250,500C366.809,500,461.5,405.301,461.5,288.5z"/>
</g></g><g transform="translate(800,920) scale(0.08,0.08)"><g transform="" style="fill: rgb(45, 212, 191);">
<path d="M461.5,288.5c0-42.907,0-123.188,0-171.55c0-23.857,0-39.95,0-39.95V59.5V30V0h-423v30v29.5V77c0,0,0,16.216,0,39.95
	c0,51.332,0,137.84,0,171.55C38.5,405.301,133.2,500,250,500C366.809,500,461.5,405.301,461.5,288.5z"/>
</g></g><g transform="translate(320,960) scale(0.08,0.08)"><g transform="" style="fill: rgb(45, 212, 191);">
<path d="M250,38.5c116.813,0,211.5,94.693,211.5,211.5c0,116.813-94.687,211.5-211.5,211.5c-116.807,0-211.5-94.687-211.5-211.5
	C38.5,133.193,133.193,38.5,250,38.5z"/>
</g></g><g transform="translate(480,960) scale(0.08,0.08)"><g transform="" style="fill: rgb(45, 212, 191);">
<path d="M461.5,288.5c0-42.907,0-123.188,0-171.55c0-23.857,0-39.95,0-39.95V59.5V30V0h-423v30v29.5V77c0,0,0,16.216,0,39.95
	c0,51.332,0,137.84,0,171.55C38.5,405.301,133.2,500,250,500C366.809,500,461.5,405.301,461.5,288.5z"/>
</g></g><g transform="translate(520,960) scale(0.08,0.08)"><g transform="" style="fill: rgb(45, 212, 191);">
<path d="M250,38.5c116.813,0,211.5,94.693,211.5,211.5c0,116.813-94.687,211.5-211.5,211.5c-116.807,0-211.5-94.687-211.5-211.5
	C38.5,133.193,133.193,38.5,250,38.5z"/>
</g></g><g transform="translate(560,960) scale(0.08,0.08)"><g transform="" style="fill: rgb(45, 212, 191);">
<path d="M461.5,288.5c0-42.907,0-123.188,0-171.55c0-23.857,0-39.95,0-39.95V59.5V30V0h-423v30v29.5V77c0,0,0,16.216,0,39.95
	c0,51.332,0,137.84,0,171.55C38.5,405.301,133.2,500,250,500C366.809,500,461.5,405.301,461.5,288.5z"/>
</g></g><g transform="translate(600,960) scale(0.08,0.08)"><g transform="" style="fill: rgb(45, 212, 191);">
<path d="M250,38.5c116.813,0,211.5,94.693,211.5,211.5c0,116.813-94.687,211.5-211.5,211.5c-116.807,0-211.5-94.687-211.5-211.5
	C38.5,133.193,133.193,38.5,250,38.5z"/>
</g></g><g transform="translate(640,960) scale(0.08,0.08)"><g transform="" style="fill: rgb(45, 212, 191);">
<path d="M461.5,288.5c0-42.907,0-123.188,0-171.55c0-23.857,0-39.95,0-39.95V59.5V30V0h-423v30v29.5V77c0,0,0,16.216,0,39.95
	c0,51.332,0,137.84,0,171.55C38.5,405.301,133.2,500,250,500C366.809,500,461.5,405.301,461.5,288.5z"/>
</g></g><g transform="translate(720,960) scale(0.08,0.08)"><g transform="" style="fill: rgb(45, 212, 191);">
<path d="M250,38.5c116.813,0,211.5,94.693,211.5,211.5c0,116.813-94.687,211.5-211.5,211.5c-116.807,0-211.5-94.687-211.5-211.5
	C38.5,133.193,133.193,38.5,250,38.5z"/>
</g></g><g transform="translate(840,960) scale(0.08,0.08)"><g transform="" style="fill: rgb(45, 212, 191);">
<path d="M250,38.5c116.813,0,211.5,94.693,211.5,211.5c0,116.813-94.687,211.5-211.5,211.5c-116.807,0-211.5-94.687-211.5-211.5
	C38.5,133.193,133.193,38.5,250,38.5z"/>
</g></g><g transform="translate(960,960) scale(0.08,0.08)"><g transform="" style="fill: rgb(45, 212, 191);">
<path d="M250,38.5c116.813,0,211.5,94.693,211.5,211.5c0,116.813-94.687,211.5-211.5,211.5c-116.807,0-211.5-94.687-211.5-211.5
	C38.5,133.193,133.193,38.5,250,38.5z"/>
</g></g><g transform="translate(0,0) scale(2.8, 2.8)"><g transform="" style="fill: rgb(45, 212, 191);">
<g>
	<rect x="15" y="15" style="fill:none;" width="70" height="70"/>
	<path d="M85,0H15H0v15v70v15h15h70h15V85V15V0H85z M85,85H15V15h70V85z"/>
</g>
</g></g><g transform="translate(720,0) scale(2.8, 2.8)"><g transform="" style="fill: rgb(45, 212, 191);">
<g>
	<rect x="15" y="15" style="fill:none;" width="70" height="70"/>
	<path d="M85,0H15H0v15v70v15h15h70h15V85V15V0H85z M85,85H15V15h70V85z"/>
</g>
</g></g><g transform="translate(0,720) scale(2.8, 2.8)"><g transform="" style="fill: rgb(45, 212, 191);">
<g>
	<rect x="15" y="15" style="fill:none;" width="70" height="70"/>
	<path d="M85,0H15H0v15v70v15h15h70h15V85V15V0H85z M85,85H15V15h70V85z"/>
</g>
</g></g><g transform="translate(80,80) scale(1.1764705882353, 1.1764705882353)"><g transform="" style="fill: rgb(45, 212, 191);">
<circle cx="50" cy="50" r="50"/>
</g></g><g transform="translate(800,80) scale(1.1764705882353, 1.1764705882353)"><g transform="" style="fill: rgb(45, 212, 191);">
<circle cx="50" cy="50" r="50"/>
</g></g><g transform="translate(80,800) scale(1.1764705882353, 1.1764705882353)"><g transform="" style="fill: rgb(45, 212, 191);">
<circle cx="50" cy="50" r="50"/>
</g></g></g></svg>